<svg version="1.1" xmlns="http://www.w3.org/2000/svg" xmlns:xlink="http://www.w3.org/1999/xlink"
	x="0px" y="0px" width="100px"
	height="100px" viewBox="0 0 100 100" enable-background="new 0 0 100 100" xml:space="preserve">
<symbol id="home" viewBox="0 0 100 100">
	<g>
		<polygon fill-rule="evenodd" clip-rule="evenodd" points="69.55,12.59 82.382,12.59 82.382,35.103 94.585,45.943 82.382,45.943
			50,17.186 17.618,45.943 5.415,45.943 50,6.354 69.55,23.708 		"/>
		<polygon fill-rule="evenodd" clip-rule="evenodd" points="82.382,52.253 82.382,93.646 60.775,93.646 60.775,65.142
			39.225,65.142 39.225,93.646 17.618,93.646 17.618,52.253 50,23.503 		"/>
	</g>
</symbol>
<symbol id="plus" viewBox="0 0 100 100">
	<polygon fill-rule="evenodd" clip-rule="evenodd" points="5.864,57.053 5.864,42.947 42.947,42.947 42.947,5.864 57.053,5.864
		57.053,42.947 94.137,42.947 94.137,57.053 57.053,57.053 57.053,94.137 42.947,94.137 42.947,57.053 	"/>
</symbol>
<symbol id="minus" viewBox="0 0 100 100">
	<rect x="5.872" y="42.947" fill-rule="evenodd" clip-rule="evenodd" width="88.256" height="14.105"/>
</symbol>
<symbol id="previous" viewBox="0 0 100 100">
	<polygon fill-rule="evenodd" clip-rule="evenodd" points="76.814,16.189 66.905,6.28 23.185,50 66.905,93.72 76.814,83.811
		43.013,50 	"/>
</symbol>
<symbol id="triangle" viewBox="0 0 100 100">
	<polygon fill-rule="evenodd" clip-rule="evenodd" points="6.793,19.229 93.207,19.229 49.999,80.771 	"/>
</symbol>
<symbol id="menu" viewBox="0 0 100 100">
	<rect x="5.872" y="42.947" display="inline" fill-rule="evenodd" clip-rule="evenodd" width="88.256" height="14.105"/>
	<rect x="5.872" y="12.947" display="inline" fill-rule="evenodd" clip-rule="evenodd" width="88.256" height="14.105"/>
	<rect x="5.872" y="72.947" display="inline" fill-rule="evenodd" clip-rule="evenodd" width="88.256" height="14.105"/>
</symbol>
<symbol id="linkedin" viewBox="0 0 100 100">
	<g>
		<path d="M25.767,15.708c0,5.245-3.873,9.495-10.246,9.495c-5.992,0-9.866-4.25-9.866-9.495c0-5.373,3.998-9.495,10.118-9.495
			C21.894,6.213,25.643,10.334,25.767,15.708z M6.156,93.787v-61.09h18.985v61.09H6.156z"/>
		<path d="M36.377,52.028c0-7.619-0.252-13.991-0.5-19.491h16.488l0.877,8.496h0.376c2.5-3.998,8.62-9.87,18.866-9.87
			c12.492,0,21.861,8.372,21.861,26.36v36.108h-18.99V59.774c0-7.871-2.747-13.242-9.62-13.242c-5.247,0-8.368,3.625-9.745,7.118
			c-0.497,1.253-0.625,3-0.625,4.746v35.235H36.377V52.028z"/>
	</g>
</symbol>
<symbol id="trailhead" viewBox="0 0 50 50">
	<g>
		<path d="M22.21,36.21a2.100,2.100,0,0,1-.11.25,6.89,6.89,0,0,0,2.42,7.85c1.58,1.24,1.89,1.76,1.73,2.92A7.59,7.59,0,0,1,25.15,50,44.87,44.87,0,0,1,2,42.64H2v-3.7c0-.93,0-1.83.1-2.73H22.21Zm27.69,0c.05.9.1,1.8.1,2.73h0v3.69a45,45,0,0,1-20.31,7.2,10,10,0,0,0,.54-2c.53-3.73-1.83-5.57-3.24-6.67a2.83,2.83,0,0,1-1.12-3.25,8.24,8.24,0,0,1,.89-1.67H49.9ZM22.5,19.59l4.4,6.47-4.16,6.13h-8.8ZM26,2A39.25,39.25,0,0,1,49.48,32.19H43.6l-8.77-12.9a2.08,2.08,0,0,0-3.33,0h0l-2.17,3.19-5.17-7.6a2.09,2.09,0,0,0-3.33,0h0L9.08,32.19H2.52A39.25,39.25,0,0,1,26,2Zm7.17,22,5.56,8.19H27.61Z" />
	</g>
</symbol>
</svg>